<svg xmlns="http://www.w3.org/2000/svg" xmlns:xlink="http://www.w3.org/1999/xlink" width="1920" zoomAndPan="magnify" viewBox="0 0 1440 809.999993" height="1080" preserveAspectRatio="xMidYMid meet" version="1.0"><path fill="#231f20" d="M 77.15625 283.957031 L 77.15625 492.9375 L 196.625 492.9375 L 196.625 530.101562 L 29.574219 530.101562 L 29.574219 283.957031 Z M 77.15625 283.957031 " fill-opacity="1" fill-rule="nonzero"/><path fill="#231f20" d="M 282.960938 362.355469 C 304.109375 362.355469 320.25 366.855469 331.414062 375.828125 C 342.574219 384.824219 348.15625 397.359375 348.15625 413.453125 L 348.15625 493.96875 C 348.15625 500.199219 350.683594 503.304688 355.734375 503.304688 C 357.851562 503.304688 360.808594 502.390625 364.636719 500.5625 C 368.460938 498.734375 371.660156 496.664062 374.234375 494.308594 L 374.234375 519.324219 C 359.078125 528.613281 345.222656 533.253906 332.640625 533.253906 C 324.894531 533.253906 318.925781 531.957031 314.765625 529.382812 C 310.605469 526.808594 307.691406 522.214844 306.058594 515.644531 C 289.507812 527.386719 272.882812 533.253906 256.1875 533.253906 C 244.328125 533.253906 234.128906 529.261719 225.613281 521.273438 C 217.097656 513.289062 212.835938 503.714844 212.835938 492.550781 C 212.835938 478.332031 217.070312 467.125 225.515625 458.894531 C 233.984375 450.667969 248.777344 443.5 269.925781 437.390625 L 305 427.164062 L 305 419.585938 C 305 403.492188 295.253906 395.457031 275.746094 395.457031 C 265.761719 395.457031 255.828125 397.742188 245.964844 402.339844 C 236.101562 406.933594 227.101562 413.667969 218.996094 422.59375 L 218.996094 383.648438 C 236.964844 369.429688 258.28125 362.332031 282.960938 362.332031 Z M 256.523438 486.054688 C 256.523438 492.046875 258.425781 496.855469 262.25 500.515625 C 266.074219 504.144531 270.789062 505.976562 276.445312 505.976562 C 285.96875 505.976562 295.472656 501.621094 305 492.9375 L 305 449.585938 C 292.898438 453.699219 283.417969 457.574219 276.539062 461.207031 C 269.660156 464.835938 264.609375 468.542969 261.382812 472.296875 C 258.160156 476.046875 256.546875 480.644531 256.546875 486.03125 Z M 256.523438 486.054688 " fill-opacity="1" fill-rule="nonzero"/><path fill="#231f20" d="M 441.351562 283.957031 L 441.351562 376.117188 C 454.148438 366.953125 468.65625 362.378906 484.871094 362.378906 C 499.328125 362.378906 512.4375 365.941406 524.25 373.039062 C 536.0625 380.160156 545.226562 390.117188 551.746094 402.988281 C 558.265625 415.859375 561.539062 430.21875 561.539062 446.074219 C 561.539062 473.089844 553.503906 494.378906 537.410156 509.945312 C 521.316406 525.507812 499.28125 533.304688 471.328125 533.304688 C 446.1875 533.304688 421.746094 528.660156 398.027344 519.375 L 398.027344 283.980469 L 441.375 283.980469 Z M 441.351562 495.75 C 450.636719 498.925781 461.4375 500.515625 473.78125 500.515625 C 487.058594 500.515625 497.597656 495.679688 505.414062 485.984375 C 513.234375 476.289062 517.128906 462.863281 517.128906 445.710938 C 517.128906 430.195312 513.183594 417.855469 505.316406 408.617188 C 497.453125 399.402344 487.058594 394.785156 474.140625 394.785156 C 468.152344 394.785156 462.617188 395.890625 457.589844 398.128906 C 452.539062 400.367188 447.125 403.832031 441.375 408.519531 L 441.375 495.75 Z M 441.351562 495.75 " fill-opacity="1" fill-rule="nonzero"/><path fill="#231f20" d="M 649.082031 283.957031 L 649.082031 492.9375 L 768.546875 492.9375 L 768.546875 530.101562 L 601.519531 530.101562 L 601.519531 283.957031 L 649.105469 283.957031 Z M 649.082031 283.957031 " fill-opacity="1" fill-rule="nonzero"/><path fill="#231f20" d="M 1136.011719 362.355469 C 1153.621094 362.355469 1167.695312 368.152344 1178.207031 379.703125 C 1188.71875 391.273438 1193.988281 406.523438 1193.988281 425.433594 L 1193.988281 530.101562 L 1150.832031 530.101562 L 1150.832031 429.835938 C 1150.832031 419.152344 1148.28125 410.6875 1143.15625 404.457031 C 1138.054688 398.226562 1131.078125 395.121094 1122.273438 395.121094 C 1115.585938 395.121094 1109.285156 397.09375 1103.414062 401.015625 C 1097.542969 404.960938 1091.074219 411.503906 1084.023438 420.667969 L 1084.023438 530.078125 L 1040.675781 530.078125 L 1040.675781 365.507812 L 1084.023438 365.507812 L 1084.023438 388.578125 C 1092.011719 379.171875 1100.214844 372.460938 1108.609375 368.394531 C 1117.007812 364.351562 1126.148438 362.308594 1136.011719 362.308594 Z M 1136.011719 362.355469 " fill-opacity="1" fill-rule="nonzero"/><path fill="#231f20" d="M 1279.269531 283.957031 L 1279.269531 530.101562 L 1235.917969 530.101562 L 1235.917969 283.957031 Z M 1398.710938 365.53125 L 1331.929688 446.746094 L 1406.984375 530.078125 L 1352.015625 530.078125 L 1279.941406 446.746094 L 1347.78125 365.53125 Z M 1398.710938 365.53125 " fill-opacity="1" fill-rule="nonzero"/><path fill="#9e76bd" d="M 972.785156 471.8125 C 972.835938 464.574219 979.5 459.546875 986.042969 459.691406 C 992.585938 459.835938 998.742188 465.152344 998.742188 472.414062 L 998.792969 504.265625 C 998.863281 557.9375 954.503906 600.566406 901.601562 600.6875 C 848.773438 600.804688 803.980469 558.371094 804.003906 504.746094 L 804.003906 472.414062 C 804.003906 465.390625 809.921875 460.003906 816.273438 459.691406 C 822.746094 459.378906 829.867188 464.140625 829.914062 471.164062 L 830.203125 504.917969 C 830.46875 535.851562 851.660156 562.628906 881.105469 571.554688 C 901.867188 577.832031 924.480469 573.839844 941.199219 562.4375 C 961.09375 548.867188 972.5 527.722656 972.644531 504.628906 L 972.835938 471.789062 Z M 972.785156 471.8125 " fill-opacity="1" fill-rule="nonzero"/><path fill="#9e76bd" d="M 972.691406 306.519531 C 972.617188 282.679688 962.347656 260.886719 942.425781 246.714844 C 925.324219 234.542969 902.058594 230.261719 880.675781 236.851562 C 851.46875 245.875 830.445312 272.601562 830.179688 303.371094 L 829.890625 337.121094 C 829.84375 344.144531 822.746094 348.933594 816.25 348.597656 C 809.753906 348.257812 803.980469 342.894531 803.980469 335.894531 L 803.980469 303.585938 C 803.933594 250.109375 848.4375 207.746094 901.144531 207.625 C 954 207.480469 998.695312 249.964844 998.769531 303.609375 L 998.769531 335.484375 C 998.816406 342.679688 993.257812 348.210938 986.5 348.621094 C 979.738281 349.027344 972.785156 343.6875 972.761719 336.421875 L 972.691406 306.546875 Z M 972.691406 306.519531 " fill-opacity="1" fill-rule="nonzero"/><path fill="#9e76bd" d="M 915.265625 482.617188 C 915.265625 490.53125 908.554688 496.113281 901.628906 496.207031 C 894.699219 496.304688 887.507812 490.675781 887.480469 482.855469 L 887.480469 325.863281 C 887.457031 318.066406 893.882812 312.199219 901.171875 312.078125 C 908.460938 311.957031 915.242188 317.636719 915.242188 325.429688 L 915.242188 482.617188 Z M 915.265625 482.617188 " fill-opacity="1" fill-rule="nonzero"/></svg>