<?xml version="1.0" encoding="UTF-8"?>
<svg id="Layer_1" data-name="Layer 1" xmlns="http://www.w3.org/2000/svg" viewBox="0 0 600 300">
  <defs>
    <style>
      .cls-1 {
        fill: #fff;
      }
    </style>
  </defs>
  <path class="cls-1" d="M33.49,100.04v86.87h49.66v15.45H13.71v-102.32h19.78Z"/>
  <path class="cls-1" d="M119.04,132.63c8.79,0,15.5,1.87,20.14,5.6,4.64,3.74,6.96,8.95,6.96,15.64v33.47c0,2.59,1.05,3.88,3.15,3.88.88,0,2.11-.38,3.7-1.14,1.59-.76,2.92-1.62,3.99-2.6v10.4c-6.3,3.86-12.06,5.79-17.29,5.79-3.22,0-5.7-.54-7.43-1.61s-2.94-2.98-3.62-5.71c-6.88,4.88-13.79,7.32-20.73,7.32-4.93,0-9.17-1.66-12.71-4.98-3.54-3.32-5.31-7.3-5.31-11.94,0-5.91,1.76-10.57,5.27-13.99,3.52-3.42,9.67-6.4,18.46-8.94l14.58-4.25v-3.15c0-6.69-4.05-10.03-12.16-10.03-4.15,0-8.28.95-12.38,2.86s-7.84,4.71-11.21,8.42v-16.19c7.47-5.91,16.33-8.86,26.59-8.86ZM108.05,184.05c0,2.49.79,4.49,2.38,6.01,1.59,1.51,3.55,2.27,5.9,2.27,3.96,0,7.91-1.81,11.87-5.42v-18.02c-5.03,1.71-8.97,3.32-11.83,4.83-2.86,1.51-4.96,3.05-6.3,4.61-1.34,1.56-2.01,3.47-2.01,5.71Z"/>
  <path class="cls-1" d="M184.88,100.04v38.31c5.32-3.81,11.35-5.71,18.09-5.71,6.01,0,11.46,1.48,16.37,4.43,4.91,2.96,8.72,7.1,11.43,12.45,2.71,5.35,4.07,11.32,4.07,17.91,0,11.23-3.34,20.08-10.03,26.55-6.69,6.47-15.85,9.71-27.47,9.71-10.45,0-20.61-1.93-30.47-5.79v-97.85h18.02ZM184.88,188.08c3.86,1.32,8.35,1.98,13.48,1.98,5.52,0,9.9-2.01,13.15-6.04,3.25-4.03,4.87-9.61,4.87-16.74,0-6.45-1.64-11.58-4.91-15.42-3.27-3.83-7.59-5.75-12.96-5.75-2.49,0-4.79.46-6.88,1.39-2.1.93-4.35,2.37-6.74,4.32v36.26Z"/>
  <path class="cls-1" d="M271.23,100.04v86.87h49.66v15.45h-69.43v-102.32h19.78Z"/>
  <path class="cls-1" d="M473.64,132.63c7.32,0,13.17,2.41,17.54,7.21,4.37,4.81,6.56,11.15,6.56,19.01v43.51h-17.94v-41.68c0-4.44-1.06-7.96-3.19-10.55-2.12-2.59-5.02-3.88-8.68-3.88-2.78,0-5.4.82-7.84,2.45-2.44,1.64-5.13,4.36-8.06,8.17v45.48h-18.02v-68.41h18.02v9.59c3.32-3.91,6.73-6.7,10.22-8.39,3.49-1.68,7.29-2.53,11.39-2.53Z"/>
  <path class="cls-1" d="M533.19,100.04v102.32h-18.02v-102.32h18.02ZM582.84,133.95l-27.76,33.76,31.2,34.64h-22.85l-29.96-34.64,28.2-33.76h21.17Z"/>
  <path class="cls-1" d="M405.79,178.13c.02-3.01,2.79-5.1,5.51-5.04s5.28,2.27,5.28,5.29l.02,13.24c.03,22.31-18.41,40.03-40.4,40.08-21.96.05-40.58-17.59-40.57-39.88v-13.44c0-2.92,2.46-5.16,5.1-5.29,2.69-.13,5.65,1.85,5.67,4.77l.12,14.03c.11,12.86,8.92,23.99,21.16,27.7,8.63,2.61,18.03.95,24.98-3.79,8.27-5.64,13.01-14.43,13.07-24.03l.08-13.65Z"/>
  <path class="cls-1" d="M405.75,109.42c-.03-9.91-4.3-18.97-12.58-24.86-7.11-5.06-16.78-6.84-25.67-4.1-12.14,3.75-20.88,14.86-20.99,27.65l-.12,14.03c-.02,2.92-2.97,4.91-5.67,4.77s-5.1-2.37-5.1-5.28v-13.43c-.02-22.23,18.48-39.84,40.39-39.89,21.97-.06,40.55,17.6,40.58,39.9v13.25c.02,2.99-2.29,5.29-5.1,5.46s-5.7-2.05-5.71-5.07l-.03-12.42Z"/>
  <path class="cls-1" d="M381.88,182.62c0,3.29-2.79,5.61-5.67,5.65s-5.87-2.3-5.88-5.55v-65.26c-.01-3.24,2.66-5.68,5.69-5.73,2.91-.06,5.85,2.31,5.85,5.55v65.34Z"/>
</svg>